<svg xmlns="http://www.w3.org/2000/svg" xmlns:xlink="http://www.w3.org/1999/xlink" viewBox="0 0 87.33 100.41"><defs><style>.cls-1{fill:url(#linear-gradient);}</style><linearGradient id="linear-gradient" y1="50.2" x2="87.33" y2="50.2" gradientUnits="userSpaceOnUse"><stop offset="0" stop-color="#c107e2"/><stop offset="1" stop-color="#07dde2"/></linearGradient></defs><g id="Layer_2" data-name="Layer 2"><g id="Layer_1-2" data-name="Layer 1"><path class="cls-1" d="M87.33,25.81V74.59a1.44,1.44,0,0,1-.71,1.24l-10.2,5.89h0V69.94a1.42,1.42,0,0,0-.72-1.24L65.5,62.81l-2.92-1.69-8-4.61L43.67,50.2,32.75,43.9l-8-4.62L21.84,37.6h0L10.92,31.29h0v37a1.41,1.41,0,0,0,.71,1.23L16,72l5.85,3.37h0l10.92,6.3h0L34.89,83,43,87.61a1.46,1.46,0,0,0,1.43,0L52.44,83h0a1.42,1.42,0,0,0,0-2.47l-8.77-5.06h0L37.82,72l-5.07-2.93h0l-10.2-5.89A1.43,1.43,0,0,1,21.83,62V50.2h0l10.91,6.31h0l8,4.61,2.92,1.69h0l10.92,6.3L59.65,72l5.14,3a1.43,1.43,0,0,1,.71,1.24v11a1.41,1.41,0,0,1-.71,1.23l-9.42,5.44-.78.45-10.21,5.89a1.41,1.41,0,0,1-1.43,0l-10.2-5.88h0L32,93.87,21.83,88,13.06,83l-2.14-1.23L.71,75.83A1.44,1.44,0,0,1,0,74.59V25.81a1.41,1.41,0,0,1,.71-1.23L10.2,19.1a1.46,1.46,0,0,1,1.43,0L21.83,25h0l5.85,3.38,5.06,2.92L43.67,37.6l2.92,1.68,8,4.62h0L65.5,50.2h0l8.77,5.07A1.43,1.43,0,0,0,76.42,54V32.12a1.42,1.42,0,0,0-.72-1.24l-4.35-2.51L65.5,25l-10.91-6.3-2.15-1.24L44.38,12.8a1.41,1.41,0,0,0-1.43,0l-8.06,4.65-2.14,1.24h0l-2.14-1.24L24,13.62a1.43,1.43,0,0,1,0-2.47l8-4.61.79-.46h0L43,.19a1.46,1.46,0,0,1,1.43,0L54.59,6.08l.78.46L65.5,12.38l8.78,5.07,2.14,1.24,10.2,5.89A1.41,1.41,0,0,1,87.33,25.81Z"/></g></g></svg>